<svg xmlns="http://www.w3.org/2000/svg" xmlns:xlink="http://www.w3.org/1999/xlink" viewBox="0,0,256,256" width="24px" height="24px"><g fill="#e50914" fill-rule="nonzero" stroke="none" stroke-width="1" stroke-linecap="butt" stroke-linejoin="miter" stroke-miterlimit="10" stroke-dasharray="" stroke-dashoffset="0" font-family="none" font-weight="none" font-size="none" text-anchor="none" style="mix-blend-mode: normal"><g transform="scale(10.66667,10.66667)"><path d="M0,8.5v6.4375c0.32813,-0.04687 0.67188,-0.11328 1,-0.15625c0,-1.34766 0,-2.15234 0,-3.5c0.44922,1.32422 0.73828,2.11719 1.1875,3.375c0.35156,-0.03906 0.74219,-0.08984 1.09375,-0.125c0.00391,-2.00781 -0.00391,-4.02344 0,-6.03125h-1c-0.00391,1.375 0.00391,2.25 0,3.625c-0.43359,-1.33984 -0.875,-2.21484 -1.3125,-3.625zM4.28125,8.5c-0.00391,1.98047 -0.02734,3.95703 -0.03125,5.9375c0.9375,-0.08594 1.875,-0.16406 2.8125,-0.21875c0,-0.28906 0,-0.71094 0,-1c-0.60937,0.03906 -1.17187,0.08594 -1.78125,0.125c0,-0.53125 0,-0.96875 0,-1.5c0.44531,-0.00781 0.89063,0.00781 1.34375,0c0,-0.28906 0,-0.71094 0,-1c-0.44922,0.00781 -0.90234,-0.00781 -1.34375,0c0,-0.53125 0,-0.8125 0,-1.34375c0.27734,-0.00391 1.55078,-0.02734 1.78125,-0.03125c0,-0.28906 0,-0.67969 0,-0.96875zM7.71875,8.5c0,0.28906 0,0.67969 0,0.96875c0.04688,0 1.02734,0.03125 1.0625,0.03125c-0.00391,1.59766 -0.02734,3.02734 -0.03125,4.625c0.32813,-0.01172 0.70313,-0.02344 1.03125,-0.03125c0,-1.58984 0,-3.03516 0,-4.625c0.34766,0 0.71484,0 1.0625,0v-0.96875zM11.5,8.5c0,1.86328 0,3.73047 0,5.59375c0.10938,0 0.20313,0 0.3125,0c0.22656,0 0.46484,-0.00391 0.6875,0c0,-0.78906 0,-1.52344 0,-2.3125c0.05469,0 1.24219,-0.00391 1.375,0c0,-0.28516 -0.03125,-0.71875 -0.03125,-1c-0.125,0 -1.29297,0 -1.34375,0v-1.28125c0.10938,0 1.53906,-0.00391 1.8125,0c0,-0.28516 0,-0.71484 0,-1zM14.96875,8.5c0.00391,1.88281 -0.00391,3.74219 0,5.625c0.89844,0.03125 1.82031,0.09375 2.71875,0.15625c0,-0.28906 0,-0.71094 0,-1c-0.56641,-0.03516 -1.14844,-0.07031 -1.71875,-0.09375c-0.00391,-1.61328 0.00391,-3.07422 0,-4.6875zM18.53125,8.5c0.00391,1.94531 -0.00391,3.89844 0,5.84375c0.32813,0.02344 0.67188,0.03516 1,0.0625c0,-1.97266 0.00391,-3.93359 0,-5.90625zM20.40625,8.5c0.40234,0.98438 0.77734,1.95313 1.1875,3c-0.42578,1.00391 -0.85547,2.00391 -1.28125,2.96875c0.35156,0.03516 0.71094,0.08594 1.0625,0.125c0.25391,-0.62109 0.46484,-1.08203 0.71875,-1.71875c0.25391,0.67969 0.49609,1.20703 0.75,1.90625c0.35156,0.04688 0.80469,0.10547 1.15625,0.15625c-0.42578,-1.14062 -0.88281,-2.32812 -1.3125,-3.40625c0.42578,-1.01172 0.83984,-1.97266 1.28125,-3.03125h-1.09375c-0.27344,0.65234 -0.45703,1.06641 -0.71875,1.6875c-0.24219,-0.64844 -0.41016,-1.05859 -0.65625,-1.6875z"></path></g></g></svg>